<svg xmlns="http://www.w3.org/2000/svg" width="16" height="16"><path d="M1.002 1.998v.998h1.52l2.613 7 .75-.002a1.506 1.506 0 0 0-1.403 1.492c.001.823.68 1.499 1.502 1.498.823 0 1.499-.677 1.498-1.5 0-.79-.627-1.44-1.406-1.49l5.73-.012 2.13-4.798-.915-.405-1.865 4.205-5.328.012-2.613-6.998H1.002zm4.477 2.994.001 1H7.48l-.002-1H5.479zm3.001 0 .002 1h1.998l-.001-1H8.48zM6.48 6.996l.001 1H8.48l-.002-1H6.479zm3.001 0 .002 1h1.998l-.001-1H9.48zm1.502 2.99c-.822 0-1.5.678-1.5 1.5.001.823.68 1.5 1.502 1.5.823 0 1.499-.68 1.498-1.502 0-.822-.677-1.498-1.5-1.498zm-5 .998c.282 0 .5.218.5.5 0 .282-.218.5-.5.5a.491.491 0 0 1-.5-.498c0-.282.218-.501.5-.502zm5 .002c.282 0 .5.216.5.498a.494.494 0 0 1-.5.502.493.493 0 0 1-.5-.5c0-.282.218-.5.5-.5z" color="#000" font-family="sans-serif" font-weight="400" overflow="visible" style="line-height:normal;text-indent:0;text-align:start;text-decoration-line:none;text-decoration-style:solid;text-decoration-color:#000;text-transform:none;block-progression:tb;white-space:normal;isolation:auto;mix-blend-mode:normal;solid-color:#000;solid-opacity:1"/></svg>